<svg width="24" height="24" viewBox="0 0 24 24" fill="none" xmlns="http://www.w3.org/2000/svg">
<g clip-path="url(#clip0_101_412)">
<path d="M12.3836 15.4301C14.0672 15.4301 15.432 14.0652 15.432 12.3816C15.432 10.698 14.0672 9.33313 12.3836 9.33313C10.7 9.33313 9.33511 10.698 9.33511 12.3816C9.33511 14.0652 10.7 15.4301 12.3836 15.4301Z" stroke="black" stroke-width="1.74198" stroke-linecap="round" stroke-linejoin="round"/>
<path d="M19.1749 14.9092C19.0458 15.2017 19.0073 15.5261 19.0643 15.8407C19.1214 16.1552 19.2713 16.4455 19.4949 16.674L19.5531 16.7322C19.7334 16.9123 19.8764 17.1262 19.974 17.3617C20.0716 17.5971 20.1218 17.8495 20.1218 18.1043C20.1218 18.3592 20.0716 18.6116 19.974 18.847C19.8764 19.0825 19.7334 19.2963 19.5531 19.4765C19.3729 19.6568 19.159 19.7998 18.9236 19.8974C18.6882 19.995 18.4358 20.0453 18.1809 20.0453C17.9261 20.0453 17.6737 19.995 17.4383 19.8974C17.2028 19.7998 16.9889 19.6568 16.8088 19.4765L16.7506 19.4183C16.5221 19.1947 16.2318 19.0448 15.9173 18.9877C15.6027 18.9307 15.2783 18.9692 14.9858 19.0983C14.699 19.2212 14.4544 19.4253 14.2821 19.6855C14.1098 19.9456 14.0173 20.2505 14.0161 20.5625V20.7274C14.0161 21.2417 13.8118 21.735 13.448 22.0987C13.0843 22.4624 12.591 22.6668 12.0767 22.6668C11.5623 22.6668 11.069 22.4624 10.7053 22.0987C10.3416 21.735 10.1373 21.2417 10.1373 20.7274V20.6401C10.1298 20.3191 10.0259 20.0079 9.83912 19.7467C9.65235 19.4856 9.39134 19.2867 9.09002 19.1759C8.79754 19.0468 8.4731 19.0083 8.15854 19.0653C7.84397 19.1223 7.55371 19.2723 7.32517 19.4959L7.26699 19.554C7.08687 19.7344 6.87298 19.8774 6.63754 19.975C6.4021 20.0726 6.14973 20.1228 5.89487 20.1228C5.64 20.1228 5.38763 20.0726 5.1522 19.975C4.91676 19.8774 4.70286 19.7344 4.52275 19.554C4.34243 19.3739 4.19938 19.16 4.10178 18.9246C4.00418 18.6892 3.95395 18.4368 3.95395 18.1819C3.95395 17.9271 4.00418 17.6747 4.10178 17.4392C4.19938 17.2038 4.34243 16.9899 4.52275 16.8098L4.58093 16.7516C4.80448 16.5231 4.95444 16.2328 5.01148 15.9182C5.06851 15.6037 5.03001 15.2792 4.90093 14.9868C4.77801 14.7 4.5739 14.4554 4.31374 14.2831C4.05358 14.1108 3.74872 14.0183 3.43669 14.0171H3.27184C2.75748 14.0171 2.26419 13.8127 1.90048 13.449C1.53677 13.0853 1.33244 12.592 1.33244 12.0777C1.33244 11.5633 1.53677 11.07 1.90048 10.7063C2.26419 10.3426 2.75748 10.1383 3.27184 10.1383H3.35911C3.68007 10.1308 3.99136 10.0269 4.25249 9.84011C4.51362 9.65334 4.71253 9.39233 4.82335 9.09101C4.95243 8.79853 4.99094 8.4741 4.9339 8.15953C4.87687 7.84497 4.7269 7.5547 4.50335 7.32616L4.44517 7.26798C4.26485 7.08786 4.1218 6.87397 4.02421 6.63853C3.92661 6.40309 3.87637 6.15073 3.87637 5.89586C3.87637 5.64099 3.92661 5.38863 4.02421 5.15319C4.1218 4.91775 4.26485 4.70386 4.44517 4.52374C4.62529 4.34342 4.83918 4.20037 5.07462 4.10277C5.31006 4.00518 5.56243 3.95494 5.81729 3.95494C6.07216 3.95494 6.32453 4.00518 6.55996 4.10277C6.7954 4.20037 7.0093 4.34342 7.18941 4.52374L7.24759 4.58192C7.47613 4.80547 7.7664 4.95543 8.08096 5.01247C8.39553 5.06951 8.71997 5.031 9.01244 4.90192H9.09002C9.37683 4.779 9.62143 4.57489 9.79372 4.31473C9.96601 4.05457 10.0585 3.74971 10.0597 3.43768V3.27283C10.0597 2.75847 10.264 2.26518 10.6278 1.90147C10.9915 1.53776 11.4848 1.33344 11.9991 1.33344C12.5135 1.33344 13.0068 1.53776 13.3705 1.90147C13.7342 2.26518 13.9385 2.75847 13.9385 3.27283V3.3601C13.9397 3.67214 14.0322 3.977 14.2045 4.23716C14.3768 4.49732 14.6214 4.70142 14.9082 4.82434C15.2007 4.95343 15.5251 4.99193 15.8397 4.93489C16.1542 4.87786 16.4445 4.7279 16.673 4.50434L16.7312 4.44616C16.9113 4.26584 17.1252 4.1228 17.3607 4.0252C17.5961 3.9276 17.8485 3.87736 18.1034 3.87736C18.3582 3.87736 18.6106 3.9276 18.846 4.0252C19.0815 4.1228 19.2954 4.26584 19.4755 4.44616C19.6558 4.62628 19.7988 4.84017 19.8964 5.07561C19.994 5.31105 20.0443 5.56342 20.0443 5.81828C20.0443 6.07315 19.994 6.32552 19.8964 6.56096C19.7988 6.79639 19.6558 7.01029 19.4755 7.1904L19.4173 7.24859C19.1937 7.47712 19.0438 7.76739 18.9867 8.08196C18.9297 8.39652 18.9682 8.72096 19.0973 9.01344V9.09101C19.2202 9.37782 19.4243 9.62242 19.6845 9.79471C19.9446 9.967 20.2495 10.0595 20.5615 10.0607H20.7264C21.2407 10.0607 21.734 10.265 22.0977 10.6287C22.4614 10.9925 22.6658 11.4857 22.6658 12.0001C22.6658 12.5145 22.4614 13.0078 22.0977 13.3715C21.734 13.7352 21.2407 13.9395 20.7264 13.9395H20.6391C20.3271 13.9407 20.0222 14.0332 19.7621 14.2055C19.5019 14.3778 19.2978 14.6224 19.1749 14.9092Z" stroke="black" stroke-width="1.74198" stroke-linecap="round" stroke-linejoin="round"/>
</g>
<defs>
<clipPath id="clip0_101_412">
<rect width="24" height="24" fill="white"/>
</clipPath>
</defs>
</svg>
