<svg width="42" height="42" viewBox="0 0 42 42" fill="none" xmlns="http://www.w3.org/2000/svg">
<rect x="0.695984" y="0.5" width="41" height="41" rx="20" fill="#F6F6F6"/>
<path d="M27.3626 27.375V25.9583C27.3626 25.2069 27.0641 24.4862 26.5328 23.9549C26.0014 23.4235 25.2807 23.125 24.5293 23.125H18.8626C18.1112 23.125 17.3905 23.4235 16.8592 23.9549C16.3278 24.4862 16.0293 25.2069 16.0293 25.9583V27.375" stroke="black" stroke-width="1.41667" stroke-linecap="round" stroke-linejoin="round"/>
<path d="M21.696 20.2917C23.2608 20.2917 24.5293 19.0231 24.5293 17.4583C24.5293 15.8935 23.2608 14.625 21.696 14.625C20.1312 14.625 18.8627 15.8935 18.8627 17.4583C18.8627 19.0231 20.1312 20.2917 21.696 20.2917Z" stroke="#3A3A3A" stroke-width="1.41667" stroke-linecap="round" stroke-linejoin="round"/>
<path d="M11.0293 27.375V25.9583C11.0293 25.2069 11.3278 24.4862 11.8592 23.9549C12.3906 23.4235 13.1112 23.125 13.8627 23.125" stroke="black" stroke-width="1.41667" stroke-linecap="round" stroke-linejoin="round"/>
<path d="M16.696 20.2917C15.1312 20.2917 13.8627 19.0231 13.8627 17.4583C13.8627 15.8935 15.1312 14.625 16.696 14.625" stroke="#3A3A3A" stroke-width="1.41667" stroke-linecap="round" stroke-linejoin="round"/>
<path d="M32.3626 27.375V25.9583C32.3626 25.2069 32.0641 24.4862 31.5328 23.9549C31.0014 23.4235 30.2807 23.125 29.5293 23.125" stroke="black" stroke-width="1.41667" stroke-linecap="round" stroke-linejoin="round"/>
<path d="M26.696 20.2917C28.2608 20.2917 29.5293 19.0231 29.5293 17.4583C29.5293 15.8935 28.2608 14.625 26.696 14.625" stroke="#3A3A3A" stroke-width="1.41667" stroke-linecap="round" stroke-linejoin="round"/>
</svg>
