<svg width="42" height="42" viewBox="0 0 42 42" fill="none" xmlns="http://www.w3.org/2000/svg">
<rect x="0.37204" y="0.5" width="41" height="41" rx="20" fill="#F6F6F6"/>
<path d="M25.2418 18.0028L24.8071 19.4858H16.5231L16.9577 18.0028H25.2418ZM21.3554 28L16.6765 22.2727L16.6509 21.1989H18.9776C19.5827 21.1989 20.0983 21.1136 20.5245 20.9432C20.9506 20.7685 21.2766 20.5085 21.5025 20.1634C21.7283 19.8139 21.8412 19.375 21.8412 18.8466C21.8412 18.0668 21.6069 17.4553 21.1381 17.0121C20.6694 16.5646 19.9492 16.3409 18.9776 16.3409H16.5231L16.9577 14.9091H18.9776C20.0174 14.9091 20.8696 15.0817 21.5344 15.4268C22.2034 15.7678 22.6978 16.2365 23.0174 16.8331C23.3412 17.4254 23.5032 18.0966 23.5032 18.8466C23.5032 19.5241 23.354 20.1484 23.0557 20.7195C22.7617 21.2862 22.2887 21.7422 21.6367 22.0874C20.989 22.4325 20.1324 22.6051 19.0671 22.6051H19.0287L23.3498 27.8977V28H21.3554ZM25.2418 14.9091L24.8071 16.392L18.2873 16.3409L18.7219 14.9091H25.2418Z" fill="#3A3A3A"/>
</svg>
