<svg width="56" height="40" viewBox="0 0 56 40" fill="none" xmlns="http://www.w3.org/2000/svg">
<path d="M33 29V27C33 25.9391 32.5786 24.9217 31.8284 24.1716C31.0783 23.4214 30.0609 23 29 23H21C19.9391 23 18.9217 23.4214 18.1716 24.1716C17.4214 24.9217 17 25.9391 17 27V29" stroke="#F6F6F6" stroke-width="2" stroke-linecap="round" stroke-linejoin="round"/>
<path d="M25 19C27.2091 19 29 17.2091 29 15C29 12.7909 27.2091 11 25 11C22.7909 11 21 12.7909 21 15C21 17.2091 22.7909 19 25 19Z" stroke="#F6F6F6" stroke-width="2" stroke-linecap="round" stroke-linejoin="round"/>
<path d="M39 29V27C38.9993 26.1137 38.7044 25.2528 38.1614 24.5523C37.6184 23.8519 36.8581 23.3516 36 23.13" stroke="#F6F6F6" stroke-width="2" stroke-linecap="round" stroke-linejoin="round"/>
<path d="M32 11.13C32.8604 11.3503 33.623 11.8507 34.1676 12.5523C34.7122 13.2539 35.0078 14.1168 35.0078 15.005C35.0078 15.8932 34.7122 16.7561 34.1676 17.4577C33.623 18.1593 32.8604 18.6597 32 18.88" stroke="#F6F6F6" stroke-width="2" stroke-linecap="round" stroke-linejoin="round"/>
</svg>
