<svg width="56" height="40" viewBox="0 0 56 40" fill="none" xmlns="http://www.w3.org/2000/svg">
<rect width="56" height="40" rx="2" fill="white"/>
<g clip-path="url(#clip0_101_447)">
<path d="M16 10.5714C16 9.88944 16.2709 9.23539 16.7532 8.75315C17.2354 8.27092 17.8894 8 18.5714 8H23.7143C24.3963 8 25.0503 8.27092 25.5326 8.75315C26.0148 9.23539 26.2857 9.88944 26.2857 10.5714V15.7143C26.2857 16.3963 26.0148 17.0503 25.5326 17.5326C25.0503 18.0148 24.3963 18.2857 23.7143 18.2857H18.5714C17.8894 18.2857 17.2354 18.0148 16.7532 17.5326C16.2709 17.0503 16 16.3963 16 15.7143V10.5714ZM29.7143 10.5714C29.7143 9.88944 29.9852 9.23539 30.4674 8.75315C30.9497 8.27092 31.6037 8 32.2857 8H37.4286C38.1106 8 38.7646 8.27092 39.2468 8.75315C39.7291 9.23539 40 9.88944 40 10.5714V15.7143C40 16.3963 39.7291 17.0503 39.2468 17.5326C38.7646 18.0148 38.1106 18.2857 37.4286 18.2857H32.2857C31.6037 18.2857 30.9497 18.0148 30.4674 17.5326C29.9852 17.0503 29.7143 16.3963 29.7143 15.7143V10.5714ZM16 24.2857C16 23.6037 16.2709 22.9497 16.7532 22.4674C17.2354 21.9852 17.8894 21.7143 18.5714 21.7143H23.7143C24.3963 21.7143 25.0503 21.9852 25.5326 22.4674C26.0148 22.9497 26.2857 23.6037 26.2857 24.2857V29.4286C26.2857 30.1106 26.0148 30.7646 25.5326 31.2468C25.0503 31.7291 24.3963 32 23.7143 32H18.5714C17.8894 32 17.2354 31.7291 16.7532 31.2468C16.2709 30.7646 16 30.1106 16 29.4286V24.2857ZM29.7143 24.2857C29.7143 23.6037 29.9852 22.9497 30.4674 22.4674C30.9497 21.9852 31.6037 21.7143 32.2857 21.7143H37.4286C38.1106 21.7143 38.7646 21.9852 39.2468 22.4674C39.7291 22.9497 40 23.6037 40 24.2857V29.4286C40 30.1106 39.7291 30.7646 39.2468 31.2468C38.7646 31.7291 38.1106 32 37.4286 32H32.2857C31.6037 32 30.9497 31.7291 30.4674 31.2468C29.9852 30.7646 29.7143 30.1106 29.7143 29.4286V24.2857Z" fill="black"/>
</g>
<defs>
<clipPath id="clip0_101_447">
<rect width="24" height="24" fill="white" transform="translate(16 8)"/>
</clipPath>
</defs>
</svg>
