<svg width="56" height="40" viewBox="0 0 56 40" fill="none" xmlns="http://www.w3.org/2000/svg">
<g clip-path="url(#clip0_101_468)">
<path d="M28.3835 23.43C30.0672 23.43 31.432 22.0652 31.432 20.3816C31.432 18.6979 30.0672 17.3331 28.3835 17.3331C26.6999 17.3331 25.3351 18.6979 25.3351 20.3816C25.3351 22.0652 26.6999 23.43 28.3835 23.43Z" stroke="white" stroke-width="1.74198" stroke-linecap="round" stroke-linejoin="round"/>
<path d="M35.1749 22.9092C35.0458 23.2017 35.0073 23.5261 35.0643 23.8407C35.1214 24.1552 35.2713 24.4455 35.4949 24.674L35.5531 24.7322C35.7334 24.9123 35.8764 25.1262 35.974 25.3617C36.0716 25.5971 36.1219 25.8495 36.1219 26.1043C36.1219 26.3592 36.0716 26.6116 35.974 26.847C35.8764 27.0825 35.7334 27.2963 35.5531 27.4765C35.3729 27.6568 35.1591 27.7998 34.9236 27.8974C34.6882 27.995 34.4358 28.0453 34.1809 28.0453C33.9261 28.0453 33.6737 27.995 33.4383 27.8974C33.2028 27.7998 32.9889 27.6568 32.8088 27.4765L32.7506 27.4183C32.5221 27.1947 32.2318 27.0448 31.9173 26.9877C31.6027 26.9307 31.2783 26.9692 30.9858 27.0983C30.699 27.2212 30.4544 27.4253 30.2821 27.6855C30.1098 27.9456 30.0173 28.2505 30.0161 28.5625V28.7274C30.0161 29.2417 29.8118 29.735 29.4481 30.0987C29.0844 30.4624 28.5911 30.6668 28.0767 30.6668C27.5623 30.6668 27.069 30.4624 26.7053 30.0987C26.3416 29.735 26.1373 29.2417 26.1373 28.7274V28.6401C26.1298 28.3191 26.0259 28.0079 25.8391 27.7467C25.6524 27.4856 25.3914 27.2867 25.09 27.1759C24.7976 27.0468 24.4731 27.0083 24.1586 27.0653C23.844 27.1223 23.5537 27.2723 23.3252 27.4959L23.267 27.554C23.0869 27.7344 22.873 27.8774 22.6376 27.975C22.4021 28.0726 22.1497 28.1228 21.8949 28.1228C21.64 28.1228 21.3876 28.0726 21.1522 27.975C20.9168 27.8774 20.7029 27.7344 20.5228 27.554C20.3424 27.3739 20.1994 27.16 20.1018 26.9246C20.0042 26.6892 19.954 26.4368 19.954 26.1819C19.954 25.9271 20.0042 25.6747 20.1018 25.4392C20.1994 25.2038 20.3424 24.9899 20.5228 24.8098L20.5809 24.7516C20.8045 24.5231 20.9545 24.2328 21.0115 23.9182C21.0685 23.6037 21.03 23.2792 20.9009 22.9868C20.778 22.7 20.5739 22.4554 20.3138 22.2831C20.0536 22.1108 19.7487 22.0183 19.4367 22.0171H19.2719C18.7575 22.0171 18.2642 21.8127 17.9005 21.449C17.5368 21.0853 17.3325 20.592 17.3325 20.0777C17.3325 19.5633 17.5368 19.07 17.9005 18.7063C18.2642 18.3426 18.7575 18.1383 19.2719 18.1383H19.3591C19.6801 18.1308 19.9914 18.0269 20.2525 17.8401C20.5136 17.6533 20.7125 17.3923 20.8234 17.091C20.9524 16.7985 20.991 16.4741 20.9339 16.1595C20.8769 15.845 20.7269 15.5547 20.5034 15.3262L20.4452 15.268C20.2649 15.0879 20.1218 14.874 20.0242 14.6385C19.9266 14.4031 19.8764 14.1507 19.8764 13.8959C19.8764 13.641 19.9266 13.3886 20.0242 13.1532C20.1218 12.9177 20.2649 12.7039 20.4452 12.5237C20.6253 12.3434 20.8392 12.2004 21.0746 12.1028C21.3101 12.0052 21.5624 11.9549 21.8173 11.9549C22.0722 11.9549 22.3245 12.0052 22.56 12.1028C22.7954 12.2004 23.0093 12.3434 23.1894 12.5237L23.2476 12.5819C23.4761 12.8055 23.7664 12.9554 24.081 13.0125C24.3955 13.0695 24.72 13.031 25.0125 12.9019H25.09C25.3768 12.779 25.6214 12.5749 25.7937 12.3147C25.966 12.0546 26.0585 11.7497 26.0597 11.4377V11.2728C26.0597 10.7585 26.2641 10.2652 26.6278 9.90147C26.9915 9.53776 27.4848 9.33344 27.9991 9.33344C28.5135 9.33344 29.0068 9.53776 29.3705 9.90147C29.7342 10.2652 29.9385 10.7585 29.9385 11.2728V11.3601C29.9398 11.6721 30.0322 11.977 30.2045 12.2372C30.3768 12.4973 30.6214 12.7014 30.9082 12.8243C31.2007 12.9534 31.5251 12.9919 31.8397 12.9349C32.1543 12.8779 32.4445 12.7279 32.6731 12.5043L32.7312 12.4462C32.9114 12.2658 33.1253 12.1228 33.3607 12.0252C33.5961 11.9276 33.8485 11.8774 34.1034 11.8774C34.3582 11.8774 34.6106 11.9276 34.846 12.0252C35.0815 12.1228 35.2954 12.2658 35.4755 12.4462C35.6558 12.6263 35.7989 12.8402 35.8965 13.0756C35.9941 13.3111 36.0443 13.5634 36.0443 13.8183C36.0443 14.0732 35.9941 14.3255 35.8965 14.561C35.7989 14.7964 35.6558 15.0103 35.4755 15.1904L35.4173 15.2486C35.1938 15.4771 35.0438 15.7674 34.9868 16.082C34.9297 16.3965 34.9682 16.721 35.0973 17.0134V17.091C35.2202 17.3778 35.4243 17.6224 35.6845 17.7947C35.9447 17.967 36.2495 18.0595 36.5615 18.0607H36.7264C37.2408 18.0607 37.734 18.265 38.0978 18.6287C38.4615 18.9925 38.6658 19.4857 38.6658 20.0001C38.6658 20.5145 38.4615 21.0078 38.0978 21.3715C37.734 21.7352 37.2408 21.9395 36.7264 21.9395H36.6391C36.3271 21.9407 36.0222 22.0332 35.7621 22.2055C35.5019 22.3778 35.2978 22.6224 35.1749 22.9092Z" stroke="white" stroke-width="1.74198" stroke-linecap="round" stroke-linejoin="round"/>
</g>
<defs>
<clipPath id="clip0_101_468">
<rect width="24" height="24" fill="white" transform="translate(16 8)"/>
</clipPath>
</defs>
</svg>
